<?xml version="1.0"?>
<svg xmlns="http://www.w3.org/2000/svg" viewBox="0 0 1080 1080">
  
  <path class="shield-main" d="M800.88,218.13v274.56c0,51.74-26.74,99.81-70.69,127.11l-165.66,102.86c-15.15,9.41-34.32,9.41-49.47,0l-165.66-102.86c-43.96-27.29-70.69-75.37-70.69-127.11V218.13c0-18.54,10.93-35.34,27.88-42.86l214.2-94.99c12.1-5.37,25.91-5.37,38.01,0l214.2,94.99c16.95,7.52,27.88,24.32,27.88,42.86Z"></path>
  <path class="shield-side" d="M491.97,122.03l-174.65,77.45c-7.37,3.27-12.14,10.59-12.14,18.65v274.56c0,42.88,21.75,81.99,58.19,104.61l128.6,79.85V122.03Z"></path>
  <path class="tooth" d="M733.4,302.66c-9.68-27.67-38.32-66.61-81.33-74.5-41.4-7.59-76.13,17.24-95.57,35.83-9.53,9.11-23.85,9.12-33.38,0-19.45-18.59-54.2-43.42-95.6-35.83-43.01,7.89-71.65,46.83-81.33,74.5-24.23,69.19,33.32,173.18,145.78,267.46v-99.22c0-24.57,19.92-44.49,44.49-44.49h6.67c24.57,0,44.49,19.92,44.49,44.49v99.24c112.44-94.29,170.01-198.28,145.78-267.48Z"></path>
  <g class="wordmark">
    <path d="M269.16,823.12h16.55v91.02h-16.55v-40.32h-39.54v40.32h-16.55v-91.02h16.55v36.38h39.54v-36.38Z"></path>
    <path d="M366.88,845.45v68.69h-15.76c0-4.99.02-9.94.06-14.84.04-4.9.09-9.46.13-13.66.04-4.2.09-7.86.13-10.96.04-3.11.06-5.41.06-6.9-2.63,3.42-5.34,7.18-8.14,11.3-2.8,4.12-5.58,8.23-8.34,12.34-2.76,4.12-5.37,8.15-7.82,12.09-2.45,3.94-4.6,7.48-6.44,10.64h-14.05v-68.69h15.63c0,5.08-.02,9.92-.06,14.51-.05,4.6-.07,8.78-.07,12.54s-.02,7.05-.06,9.85c-.04,2.8-.06,4.94-.06,6.43,2.45-3.76,4.99-7.64,7.62-11.62,2.63-3.98,5.27-7.88,7.95-11.69,2.67-3.81,5.32-7.42,7.94-10.83,2.63-3.42,5.17-6.48,7.62-9.19h13.66Z"></path>
    <path d="M403,873.04c2.01-2.01,4.2-4.27,6.57-6.76,2.36-2.5,4.71-5.01,7.03-7.55,2.32-2.54,4.53-4.97,6.63-7.29,2.1-2.32,3.85-4.31,5.25-5.98h18.65c-1.93,2.28-4.14,4.77-6.63,7.49-2.5,2.72-5.08,5.5-7.75,8.34-2.67,2.85-5.3,5.61-7.88,8.28-2.58,2.67-4.93,5.06-7.03,7.16,2.71,2.28,5.54,4.93,8.47,7.95,2.93,3.02,5.82,6.22,8.67,9.59,2.85,3.37,5.49,6.79,7.95,10.24,2.45,3.46,4.51,6.68,6.17,9.66h-18.39c-1.66-2.63-3.61-5.39-5.84-8.28-2.23-2.89-4.58-5.71-7.03-8.47-2.45-2.76-4.95-5.37-7.49-7.82-2.54-2.45-4.99-4.55-7.35-6.3v30.87h-15.89v-68.69h15.89v27.58Z"></path>
    <path d="M483.52,843.74c5.25,0,9.67.66,13.27,1.97,3.59,1.32,6.46,3.15,8.6,5.52,2.14,2.36,3.68,5.23,4.6,8.6.92,3.37,1.38,7.07,1.38,11.1v41.64c-2.45.52-6.15,1.16-11.1,1.9-4.95.74-10.53,1.12-16.75,1.12-4.12,0-7.88-.39-11.3-1.18-3.42-.79-6.33-2.06-8.74-3.81-2.41-1.75-4.29-4.03-5.65-6.83-1.36-2.8-2.04-6.26-2.04-10.37s.77-7.27,2.3-9.98c1.53-2.71,3.61-4.92,6.24-6.63,2.63-1.71,5.67-2.93,9.13-3.68,3.46-.74,7.07-1.12,10.84-1.12,1.75,0,3.59.11,5.52.33,1.92.22,3.98.59,6.17,1.12v-2.63c0-1.84-.22-3.59-.66-5.25-.44-1.66-1.2-3.13-2.3-4.4-1.1-1.27-2.54-2.25-4.33-2.95-1.8-.7-4.05-1.05-6.77-1.05-3.68,0-7.05.26-10.11.79-3.06.53-5.56,1.14-7.49,1.84l-1.97-12.87c2.01-.7,4.95-1.4,8.8-2.1,3.85-.7,7.97-1.05,12.35-1.05ZM484.83,902.98c4.9,0,8.62-.26,11.17-.79v-17.6c-.88-.26-2.15-.53-3.81-.79-1.66-.26-3.5-.4-5.52-.4-1.75,0-3.52.13-5.32.4-1.8.26-3.42.74-4.86,1.44-1.44.7-2.61,1.68-3.48,2.95-.88,1.27-1.31,2.87-1.31,4.79,0,3.77,1.18,6.37,3.55,7.81s5.56,2.17,9.59,2.17Z"></path>
    <path d="M553,900.09h11.3c3.94-5.43,6.98-11.14,9.13-17.14,2.15-5.99,3.72-12.21,4.73-18.65.79-5.07,1.29-10.75,1.61-16.23.8-13.98,12.28-24.95,26.28-24.95h29.97v76.97h13.53v14.06h-96.54v-14.06ZM608.19,837.31c-6.77,0-12.37,5.25-12.78,12.01-.08,1.37-.17,2.75-.26,4.14-.35,5.52-.98,10.97-1.9,16.35-.92,5.39-2.21,10.64-3.88,15.76-1.66,5.12-3.94,9.96-6.83,14.51h37.17v-62.78h-11.53Z"></path>
    <path d="M658.08,880.13c0-6.04.9-11.34,2.69-15.89,1.79-4.55,4.18-8.34,7.16-11.36,2.98-3.02,6.39-5.3,10.25-6.83,3.85-1.53,7.79-2.3,11.82-2.3,9.46,0,16.83,2.94,22.13,8.8,5.3,5.87,7.95,14.63,7.95,26.27,0,.88-.02,1.86-.06,2.95-.05,1.1-.11,2.08-.2,2.95h-45.32c.44,5.52,2.39,9.79,5.85,12.81,3.46,3.02,8.47,4.53,15.04,4.53,3.85,0,7.37-.35,10.57-1.05,3.2-.7,5.71-1.44,7.55-2.23l2.1,13c-.88.44-2.08.9-3.61,1.38-1.53.48-3.28.92-5.25,1.32-1.97.39-4.09.72-6.37.99-2.28.26-4.6.39-6.96.39-6.04,0-11.3-.9-15.76-2.69-4.47-1.79-8.14-4.29-11.03-7.48-2.89-3.2-5.04-6.96-6.44-11.3-1.4-4.33-2.1-9.08-2.1-14.25ZM704.18,873.04c0-2.19-.31-4.27-.92-6.24-.61-1.97-1.51-3.68-2.69-5.12-1.18-1.44-2.63-2.58-4.33-3.41-1.71-.83-3.74-1.25-6.11-1.25s-4.6.46-6.44,1.38c-1.84.92-3.4,2.12-4.66,3.61-1.27,1.49-2.25,3.2-2.95,5.12-.7,1.93-1.18,3.9-1.44,5.91h29.55Z"></path>
    <path d="M794.55,914.15h-15.89v-28.76h-25.87v28.76h-15.89v-68.69h15.89v26.8h25.87v-26.8h15.89v68.69Z"></path>
    <path d="M866.53,858.72h-22.2v55.43h-15.89v-55.43h-22.07v-13.27h60.16v13.27Z"></path>
  </g>
</svg>