<svg width="66" height="64" viewBox="0 0 66 64" fill="none" xmlns="http://www.w3.org/2000/svg">
<g clip-path="url(#clip0_88_209)">
<path d="M58.126 7.20028C67.0252 16.0995 67.915 49.6318 58.126 57.5418C48.337 65.4519 17.5733 65.4519 7.78445 57.5418C-2.00441 49.6318 -1.11475 16.0995 7.78445 7.20028C16.6836 -1.69892 49.2268 -1.69892 58.126 7.20028Z" fill="url(#paint0_linear_88_209)"/>
<path d="M44.2751 24.5134H42.606V21.2554C42.606 20.1764 42.1158 19.1695 41.2594 18.4951C40.4031 17.8207 39.3027 17.5688 38.2331 17.8072L20.9487 21.6318C20.1524 21.8044 19.4402 22.2407 18.9309 22.868C18.4215 23.4953 18.1457 24.2757 18.1495 25.079V42.843C18.1506 43.7797 18.5287 44.6776 19.2009 45.34C19.873 46.0023 20.7844 46.3748 21.735 46.376H44.2751C45.2257 46.3748 46.137 46.0023 46.8092 45.34C47.4814 44.6776 47.8595 43.7797 47.8606 42.843V28.0473C47.8595 27.1106 47.4814 26.2125 46.8093 25.55C46.1371 24.8875 45.2258 24.5147 44.2751 24.5134ZM45.7384 42.843C45.7381 43.2253 45.5839 43.5919 45.3095 43.8622C45.0351 44.1326 44.6631 44.2846 44.2751 44.2848H21.735C21.347 44.2846 20.9749 44.1326 20.7006 43.8622C20.4262 43.5919 20.272 43.2253 20.2717 42.843V25.079C20.2717 24.3994 20.7407 23.8212 21.4134 23.6717L38.699 19.847C39.1298 19.7498 39.5839 19.8523 39.9341 20.1283C40.2832 20.4033 40.4838 20.8142 40.4838 21.2554V24.5144H24.4652C24.1838 24.5144 23.9139 24.6246 23.7149 24.8206C23.5159 25.0167 23.4041 25.2827 23.4041 25.56C23.4041 25.8373 23.5159 26.1032 23.7149 26.2993C23.9139 26.4954 24.1838 26.6055 24.4652 26.6055H44.2751C44.6631 26.6058 45.0351 26.7578 45.3095 27.0281C45.5839 27.2985 45.7381 27.665 45.7384 28.0473V42.843Z" fill="white"/>
<path d="M41.3807 33.8472C40.4427 33.8472 39.6787 34.5989 39.6787 35.5242C39.6787 36.4496 40.4427 37.2013 41.3807 37.2013C42.3188 37.2013 43.0828 36.4496 43.0828 35.5242C43.0828 34.5989 42.3177 33.8472 41.3807 33.8472Z" fill="white"/>
</g>
<defs>
<linearGradient id="paint0_linear_88_209" x1="7.76591" y1="57.5973" x2="58.1444" y2="7.21869" gradientUnits="userSpaceOnUse">
<stop stop-color="#CD38DA"/>
<stop offset="1" stop-color="#FF9A35"/>
</linearGradient>
<clipPath id="clip0_88_209">
<rect width="65.9104" height="64" fill="white"/>
</clipPath>
</defs>
</svg>
