<svg width="66" height="64" viewBox="0 0 66 64" fill="none" xmlns="http://www.w3.org/2000/svg">
<g clip-path="url(#clip0_88_216)">
<path d="M58.126 7.20028C67.0252 16.0995 67.915 49.6318 58.126 57.5418C48.337 65.4519 17.5733 65.4519 7.78445 57.5418C-2.00441 49.6318 -1.11475 16.0995 7.78445 7.20028C16.6836 -1.69892 49.2268 -1.69892 58.126 7.20028Z" fill="url(#paint0_linear_88_216)"/>
<path d="M28.1668 45.8286C24.7836 45.8286 20.0099 35.9196 19.2009 28.9456C18.6281 24.0068 19.0875 20.9809 20.6926 19.1358C21.2644 18.5151 21.9655 18.0201 22.7493 17.6837C23.5331 17.3474 24.3815 17.1774 25.238 17.1851C27.5904 17.0594 29.6183 17.8523 31.4007 18.5496C33.1781 19.2448 34.3339 19.6626 35.2096 19.2972C36.5835 18.6382 38.0303 18.1342 39.5218 17.7951C41.8619 17.2494 43.7047 17.5624 44.9989 18.7243C46.8675 20.4031 47.3844 23.647 46.5789 28.641C45.9329 32.6541 43.4635 45.7468 38.8549 45.7468C36.5915 45.7468 35.3281 43.6055 33.1307 39.3381C32.0741 42.8397 30.7475 45.8286 28.1668 45.8286ZM25.7297 19.2671C25.6053 19.2671 25.4804 19.2706 25.355 19.2776C24.7924 19.2588 24.2322 19.3571 23.7118 19.5659C23.1913 19.7747 22.7227 20.0892 22.3372 20.4884C21.18 21.82 20.8541 24.5091 21.3415 28.7101C22.1836 35.972 26.7699 43.4923 28.1884 43.734C29.7296 43.7326 31.0239 38.9874 31.797 36.1515C31.8531 35.946 31.9721 35.762 32.1383 35.6239C32.3044 35.4858 32.5097 35.4002 32.727 35.3783C32.9444 35.3565 33.1634 35.3995 33.355 35.5017C33.5466 35.6038 33.7017 35.7603 33.7998 35.9503L34.514 37.3413C36.4594 41.1406 37.7444 43.6502 38.8556 43.6502C40.3336 43.6502 42.9954 37.3532 44.4519 28.3161C45.2933 23.0958 44.4196 21.0564 43.5388 20.2648C42.8052 19.606 41.6222 19.46 40.0243 19.8337C38.7464 20.1229 37.505 20.5477 36.3223 21.1004L36.2778 21.1241C36.224 21.1507 36.1701 21.1758 36.1148 21.1996C35.5456 21.4749 35.0409 21.7529 34.5586 22.0184C32.8061 23.1664 30.7302 23.7556 28.6184 23.7043C28.4746 23.7042 28.3324 23.6762 28.2 23.6218C28.0675 23.5674 27.9477 23.4877 27.8474 23.3875C27.7471 23.2873 27.6685 23.1685 27.6161 23.0383C27.5637 22.908 27.5386 22.7689 27.5424 22.629C27.5461 22.4892 27.5786 22.3515 27.6378 22.2241C27.6971 22.0966 27.782 21.9821 27.8875 21.8871C27.993 21.7921 28.117 21.7186 28.2521 21.6709C28.3872 21.6233 28.5308 21.6025 28.6743 21.6097C29.7957 21.6639 30.914 21.4547 31.9348 20.9998C31.4941 20.8454 31.0483 20.6707 30.5975 20.4947C29.0714 19.7838 27.4185 19.3672 25.7297 19.2678V19.2671Z" fill="white"/>
</g>
<defs>
<linearGradient id="paint0_linear_88_216" x1="7.76591" y1="57.5973" x2="58.1444" y2="7.21869" gradientUnits="userSpaceOnUse">
<stop stop-color="#CD38DA"/>
<stop offset="1" stop-color="#FF9A35"/>
</linearGradient>
<clipPath id="clip0_88_216">
<rect width="65.9104" height="64" fill="white"/>
</clipPath>
</defs>
</svg>
