<svg width="125" height="53" viewBox="0 0 125 53" fill="none" xmlns="http://www.w3.org/2000/svg">
<g clip-path="url(#clip0_101_15)">
<mask id="mask0_101_15" style="mask-type:luminance" maskUnits="userSpaceOnUse" x="0" y="0" width="125" height="53">
<path d="M125 0H0V53H125V0Z" fill="white"/>
</mask>
<g mask="url(#mask0_101_15)">
<path d="M42.2531 11.538V33.7683C42.2531 37.9575 40.0925 41.8497 36.5399 44.0603L23.152 52.3887C21.9277 53.1501 20.3781 53.1501 19.1538 52.3887L5.76591 44.0603C2.21332 41.8504 0.0527344 37.9583 0.0527344 33.7683V11.538C0.0527344 10.0364 0.936007 8.67619 2.30617 8.06802L19.6173 0.376755C20.5958 -0.0578765 21.7116 -0.0578765 22.6893 0.376755L40.0004 8.06802C41.3706 8.67697 42.2539 10.0371 42.2539 11.538H42.2531Z" fill="#662482"/>
<path d="M17.2876 3.75684L3.17319 10.0277C2.57784 10.2919 2.19238 10.8853 2.19238 11.538V33.7683C2.19238 37.2406 3.95034 40.4066 6.8951 42.2381L17.2883 48.7036V3.75684H17.2876Z" fill="#F29100"/>
<path d="M36.7987 18.3819C36.0169 16.1415 33.7018 12.9881 30.2257 12.3494C26.8799 11.735 24.0732 13.7448 22.5017 15.2503C21.7316 15.9883 20.5745 15.9883 19.8043 15.2503C18.2321 13.7448 15.4239 11.735 12.0781 12.3486C8.60271 12.9873 6.28764 16.1407 5.50502 18.3811C3.54653 23.9836 8.19853 32.4026 17.2864 40.0368V32.0032C17.2864 30.0137 18.8961 28.4011 20.8819 28.4011H21.4211C23.4069 28.4011 25.0166 30.0137 25.0166 32.0032V40.0384C34.1044 32.4042 38.7564 23.9836 36.7979 18.3811L36.7987 18.3819Z" fill="white"/>
<path d="M58.8583 14.2443H60.6888V24.3315H58.8583V19.8624H54.4848V24.3315H52.6543V14.2443H54.4848V18.2763H58.8583V14.2443Z" fill="white"/>
<path d="M69.6686 16.7192V24.3323H67.9247C67.9247 23.7789 67.9271 23.2309 67.9317 22.6876C67.9364 22.1443 67.9411 21.6393 67.9466 21.1734C67.9512 20.7075 67.9559 20.3026 67.9614 19.9586C67.9661 19.6147 67.9684 19.3599 67.9684 19.1941C67.6782 19.5725 67.3777 19.9899 67.0672 20.4457C66.7574 20.9022 66.45 21.3579 66.1449 21.8136C65.8398 22.2702 65.5511 22.7165 65.2804 23.1535C65.0088 23.5905 64.7716 23.9829 64.568 24.3323H63.0137V16.7192H64.7428C64.7428 17.2821 64.7404 17.8183 64.7357 18.328C64.7303 18.8377 64.7287 19.3012 64.7287 19.7179C64.7287 20.1345 64.7264 20.4988 64.7217 20.8099C64.717 21.1203 64.7147 21.3579 64.7147 21.5229C64.9854 21.1062 65.2663 20.6763 65.5574 20.2346C65.8476 19.7929 66.141 19.3614 66.4367 18.9393C66.7317 18.5172 67.0251 18.1169 67.3153 17.7386C67.6064 17.3602 67.8865 17.0202 68.158 16.7192H69.6694H69.6686Z" fill="white"/>
<path d="M73.6642 19.7757C73.8866 19.5529 74.1293 19.3027 74.3906 19.026C74.652 18.7493 74.9111 18.4702 75.1678 18.1888C75.4245 17.9074 75.6687 17.6385 75.9013 17.3813C76.1338 17.1241 76.3273 16.9037 76.4826 16.7192H78.5456C78.3326 16.9717 78.0876 17.2484 77.8121 17.5486C77.5359 17.8495 77.2504 18.1575 76.9546 18.4725C76.6589 18.7884 76.3686 19.094 76.0831 19.3895C75.7975 19.6858 75.5384 19.95 75.3059 20.1829C75.6063 20.4354 75.9184 20.7293 76.243 21.0639C76.5676 21.3985 76.8867 21.7534 77.202 22.1263C77.5164 22.4999 77.8098 22.8783 78.0813 23.2613C78.3521 23.6451 78.5799 24.0016 78.7641 24.3315H76.7299C76.5458 24.0407 76.3304 23.7342 76.0831 23.4145C75.8365 23.094 75.5767 22.7813 75.3059 22.4757C75.0344 22.17 74.7589 21.8808 74.478 21.6095C74.1971 21.3383 73.9264 21.1053 73.6642 20.9107V24.3315H71.9062V16.7184H73.6642V19.7749V19.7757Z" fill="white"/>
<path d="M82.5706 16.53C83.1519 16.53 83.6403 16.6027 84.0383 16.7481C84.4354 16.8935 84.7522 17.0976 84.9902 17.3594C85.2274 17.6213 85.3967 17.9395 85.499 18.3131C85.6004 18.6868 85.6519 19.0972 85.6519 19.5427V24.1572C85.3803 24.215 84.9715 24.2862 84.4237 24.3682C83.8768 24.4503 83.2588 24.4918 82.5714 24.4918C82.1157 24.4918 81.6998 24.448 81.3221 24.3612C80.9445 24.2737 80.6222 24.1329 80.3554 23.9391C80.0885 23.7452 79.881 23.4927 79.7304 23.1824C79.5806 22.872 79.5049 22.489 79.5049 22.0325C79.5049 21.576 79.5892 21.2265 79.7593 20.9264C79.9286 20.6262 80.1588 20.3807 80.449 20.1916C80.7401 20.0024 81.0764 19.8664 81.4587 19.7835C81.8418 19.7014 82.2413 19.66 82.6572 19.66C82.8507 19.66 83.0544 19.6725 83.2674 19.6967C83.4804 19.721 83.7082 19.7624 83.9501 19.8203V19.5295C83.9501 19.3254 83.9259 19.1316 83.8775 18.9471C83.8292 18.7626 83.7441 18.6 83.6232 18.4593C83.5014 18.3186 83.3423 18.2099 83.1433 18.1318C82.9443 18.0544 82.6946 18.0153 82.395 18.0153C81.9885 18.0153 81.6155 18.0442 81.2761 18.1028C80.9375 18.1615 80.6613 18.2287 80.4482 18.3069L80.2305 16.8802C80.4529 16.8028 80.7775 16.7247 81.2043 16.6473C81.6303 16.5699 82.086 16.5308 82.5698 16.5308L82.5706 16.53ZM82.7157 23.0948C83.258 23.0948 83.67 23.0659 83.9509 23.0073V21.0569C83.8541 21.028 83.7137 20.9983 83.5295 20.9694C83.3454 20.9404 83.1417 20.9256 82.9194 20.9256C82.7259 20.9256 82.5292 20.9404 82.331 20.9694C82.1321 20.9983 81.9534 21.0514 81.7934 21.1296C81.6335 21.207 81.5055 21.3164 81.4088 21.4572C81.312 21.5979 81.2636 21.7745 81.2636 21.9887C81.2636 22.4062 81.3939 22.6946 81.6561 22.8549C81.9183 23.0151 82.271 23.0948 82.7165 23.0948H82.7157Z" fill="white"/>
<path d="M90.2568 22.7743H91.5068C91.943 22.1732 92.2793 21.54 92.5165 20.8747C92.7537 20.2103 92.9285 19.5208 93.0393 18.8079C93.1267 18.2458 93.1829 17.6173 93.2172 17.0092C93.3054 15.4598 94.5749 14.2443 96.1245 14.2443H99.4399V22.7743H100.936V24.3322H90.2568V22.7743ZM96.3625 15.8163C95.6134 15.8163 94.9939 16.3979 94.9494 17.1475C94.94 17.3 94.9307 17.4524 94.9213 17.6064C94.8823 18.2177 94.8121 18.822 94.7106 19.4184C94.6092 20.0156 94.4656 20.5972 94.2815 21.1647C94.0973 21.7323 93.8453 22.2693 93.5262 22.7735H97.6382V15.8155H96.3625V15.8163Z" fill="white"/>
<path d="M101.881 20.5621C101.881 19.8929 101.98 19.3059 102.179 18.8009C102.377 18.2959 102.642 17.8761 102.971 17.5416C103.3 17.207 103.678 16.9545 104.105 16.7849C104.531 16.6152 104.967 16.53 105.412 16.53C106.459 16.53 107.274 16.8552 107.861 17.5056C108.447 18.156 108.74 19.1261 108.74 20.4167C108.74 20.5136 108.738 20.6231 108.733 20.7442C108.728 20.8654 108.721 20.9748 108.711 21.0718H103.698C103.746 21.6831 103.962 22.156 104.345 22.4906C104.727 22.8251 105.282 22.9932 106.009 22.9932C106.435 22.9932 106.825 22.9549 107.178 22.8767C107.532 22.7986 107.81 22.7165 108.014 22.6297L108.246 24.0704C108.15 24.1197 108.016 24.1705 107.847 24.2236C107.678 24.2768 107.484 24.326 107.266 24.369C107.048 24.4128 106.813 24.4488 106.561 24.4785C106.309 24.5074 106.052 24.5222 105.791 24.5222C105.122 24.5222 104.541 24.4222 104.047 24.2236C103.553 24.0251 103.146 23.7483 102.827 23.3942C102.507 23.0401 102.269 22.6227 102.114 22.1419C101.959 21.6612 101.882 21.1351 101.882 20.5629L101.881 20.5621ZM106.981 19.7757C106.981 19.5334 106.947 19.3028 106.879 19.0847C106.811 18.8666 106.712 18.6766 106.581 18.5171C106.451 18.3569 106.291 18.231 106.101 18.1388C105.913 18.0465 105.687 18.0004 105.426 18.0004C105.164 18.0004 104.917 18.0512 104.713 18.1529C104.51 18.2545 104.338 18.3882 104.197 18.5531C104.057 18.718 103.948 18.9072 103.871 19.1206C103.793 19.334 103.74 19.5529 103.711 19.7757H106.98H106.981Z" fill="white"/>
<path d="M116.977 24.3323H115.219V21.1445H112.357V24.3323H110.599V16.7192H112.357V19.689H115.219V16.7192H116.977V24.3323Z" fill="white"/>
<path d="M124.939 18.1896H122.484V24.3323H120.726V18.1896H118.285V16.7192H124.94V18.1896H124.939Z" fill="white"/>
<path d="M54.7878 36.6552C54.4757 36.5356 54.1995 36.348 53.96 36.0932C53.7204 35.8383 53.53 35.5155 53.3904 35.1231C53.2507 34.7314 53.1797 34.2632 53.1797 33.7183V33.5424C53.1797 33.0156 53.2499 32.5622 53.3904 32.1815C53.53 31.8016 53.7204 31.4881 53.96 31.2419C54.1995 30.9964 54.4757 30.8135 54.7878 30.6931C55.0999 30.5735 55.4261 30.5133 55.7647 30.5133C56.1034 30.5133 56.403 30.5571 56.68 30.6454C56.9578 30.733 57.202 30.8588 57.4119 31.023C57.6226 31.1871 57.7927 31.3888 57.9238 31.6288C58.0556 31.8688 58.1383 32.1408 58.1734 32.4449H57.2972C57.2566 32.2464 57.1926 32.072 57.1045 31.9227C57.0163 31.7734 56.9086 31.6491 56.7807 31.5499C56.6519 31.4506 56.5029 31.3755 56.3336 31.3263C56.1635 31.277 55.9746 31.252 55.764 31.252C55.5533 31.252 55.3371 31.2927 55.1327 31.3748C54.9283 31.4568 54.7457 31.5866 54.5857 31.7648C54.425 31.9438 54.297 32.1791 54.2003 32.4715C54.1035 32.7639 54.0559 33.1211 54.0559 33.5424V33.7183C54.0559 34.1631 54.1082 34.536 54.2136 34.8377C54.3189 35.1395 54.4531 35.3834 54.617 35.571C54.78 35.7586 54.9642 35.893 55.1686 35.9751C55.373 36.0572 55.572 36.0978 55.7647 36.0978C55.9926 36.0978 56.1954 36.0689 56.3741 36.0103C56.552 35.9517 56.705 35.8696 56.8337 35.7641C56.9625 35.6585 57.0655 35.5327 57.145 35.3865C57.2239 35.2403 57.2746 35.0793 57.298 34.9034H58.1742C58.1274 35.2427 58.0346 35.5342 57.8933 35.7766C57.7537 36.0197 57.5765 36.2198 57.3635 36.3777C57.1505 36.5356 56.9078 36.6513 56.6363 36.724C56.3648 36.7975 56.0737 36.8334 55.764 36.8334C55.4253 36.8334 55.0992 36.7732 54.7871 36.6536L54.7878 36.6552Z" fill="white"/>
<path d="M60.7407 31.3224H58.6113V30.6024H63.6933V31.3224H61.5639V36.7474H60.7399V31.3224H60.7407Z" fill="white"/>
<path d="M65.9192 36.6552C65.5922 36.5356 65.3028 36.3495 65.0515 36.0978C64.8003 35.8461 64.5989 35.524 64.4476 35.1324C64.2954 34.74 64.2197 34.2694 64.2197 33.7191V33.5432C64.2197 33.0163 64.2962 32.5629 64.4476 32.1822C64.5989 31.8023 64.801 31.4873 65.0515 31.2387C65.3028 30.9901 65.5922 30.8072 65.9192 30.6899C66.2461 30.5727 66.5855 30.514 66.9359 30.514C67.2862 30.514 67.6248 30.5727 67.9518 30.6899C68.2787 30.8072 68.5682 30.9901 68.8194 31.2387C69.0707 31.4873 69.272 31.8023 69.4242 32.1822C69.5763 32.5629 69.652 33.0163 69.652 33.5432V33.7191C69.652 34.2694 69.5763 34.74 69.4242 35.1324C69.272 35.524 69.0707 35.8461 68.8194 36.0978C68.5682 36.3495 68.2787 36.5356 67.9518 36.6552C67.6248 36.7748 67.2862 36.835 66.9359 36.835C66.5855 36.835 66.2461 36.7748 65.9192 36.6552ZM67.628 35.9657C67.8503 35.8774 68.0454 35.739 68.2155 35.549C68.3848 35.3591 68.5206 35.1128 68.6228 34.8119C68.725 34.5109 68.7765 34.1466 68.7765 33.7191V33.5432C68.7765 33.139 68.725 32.7927 68.6228 32.5027C68.5206 32.2127 68.3848 31.9758 68.2155 31.7914C68.0454 31.6069 67.8503 31.4709 67.628 31.3833C67.4064 31.2957 67.1754 31.252 66.9359 31.252C66.6963 31.252 66.4654 31.2957 66.2438 31.3833C66.0214 31.4709 65.8263 31.6069 65.657 31.7914C65.4869 31.9758 65.3519 32.2127 65.2497 32.5027C65.1475 32.7919 65.096 33.139 65.096 33.5432V33.7191C65.096 34.1459 65.1467 34.5109 65.2497 34.8119C65.3519 35.1136 65.4869 35.3591 65.657 35.549C65.8263 35.739 66.0214 35.8781 66.2438 35.9657C66.4654 36.0532 66.6963 36.097 66.9359 36.097C67.1754 36.097 67.4064 36.0532 67.628 35.9657Z" fill="white"/>
<path d="M71.0537 30.6024H71.9128L73.9626 34.5086L76.0131 30.6024H76.8371V36.7467H76.0131V32.0939L74.2521 35.4295H73.6388L71.8777 32.0939V36.7467H71.0537V30.6024Z" fill="white"/>
<path d="M81.9274 35.2199H79.3337L78.747 36.7474H77.8887L80.2373 30.6031H81.0605L83.4091 36.7474H82.5157L81.9289 35.2199H81.9274ZM79.6053 34.5H81.6558L80.6306 31.6561L79.6053 34.5Z" fill="white"/>
<path d="M85.187 31.3224H83.0576V30.6024H88.1395V31.3224H86.0102V36.7474H85.1862V31.3224H85.187Z" fill="white"/>
<path d="M90.3655 36.6552C90.0385 36.5356 89.749 36.3495 89.4978 36.0978C89.2465 35.8461 89.0452 35.524 88.8939 35.1324C88.7417 34.74 88.666 34.2694 88.666 33.7191V33.5432C88.666 33.0163 88.7425 32.5629 88.8939 32.1822C89.0452 31.8023 89.2473 31.4873 89.4978 31.2387C89.749 30.9901 90.0385 30.8072 90.3655 30.6899C90.6924 30.5727 91.0318 30.514 91.3822 30.514C91.7325 30.514 92.0711 30.5727 92.3981 30.6899C92.725 30.8072 93.0145 30.9901 93.2657 31.2387C93.517 31.4873 93.7183 31.8023 93.8705 32.1822C94.0226 32.5629 94.0983 33.0163 94.0983 33.5432V33.7191C94.0983 34.2694 94.0226 34.74 93.8705 35.1324C93.7183 35.524 93.517 35.8461 93.2657 36.0978C93.0145 36.3495 92.725 36.5356 92.3981 36.6552C92.0711 36.7748 91.7325 36.835 91.3822 36.835C91.0318 36.835 90.6924 36.7748 90.3655 36.6552ZM92.0735 35.9657C92.2959 35.8774 92.4909 35.739 92.661 35.549C92.8303 35.3591 92.9661 35.1128 93.0683 34.8119C93.1705 34.5109 93.222 34.1466 93.222 33.7191V33.5432C93.222 33.139 93.1705 32.7927 93.0683 32.5027C92.9661 32.2127 92.8303 31.9758 92.661 31.7914C92.4909 31.6069 92.2959 31.4709 92.0735 31.3833C91.8519 31.2957 91.6209 31.252 91.3814 31.252C91.1418 31.252 90.9109 31.2957 90.6893 31.3833C90.4669 31.4709 90.2718 31.6069 90.1025 31.7914C89.9324 31.9758 89.7974 32.2127 89.6952 32.5027C89.593 32.7919 89.5415 33.139 89.5415 33.5432V33.7191C89.5415 34.1459 89.5922 34.5109 89.6952 34.8119C89.7974 35.1136 89.9324 35.3591 90.1025 35.549C90.2718 35.739 90.4669 35.8781 90.6893 35.9657C90.9109 36.0532 91.1418 36.097 91.3814 36.097C91.6209 36.097 91.8519 36.0532 92.0735 35.9657Z" fill="white"/>
<path d="M95.0404 36.835C95.0193 36.835 94.9975 36.8334 94.9748 36.8303C94.9522 36.8272 94.9296 36.8248 94.9093 36.8217C94.889 36.8186 94.8672 36.8139 94.8438 36.8084V36.0009C94.8609 36.0072 94.9054 36.0095 94.9748 36.0095C95.0919 36.0095 95.1956 35.9908 95.2862 35.9524C95.3767 35.9141 95.4555 35.8446 95.5226 35.7422C95.5897 35.6398 95.6474 35.4951 95.6981 35.3075C95.7473 35.1207 95.7871 34.8792 95.8168 34.5837C95.8464 34.2882 95.8659 33.9294 95.8784 33.508C95.8901 33.0867 95.8956 32.5864 95.8956 32.0072V30.6024H100.014V36.7467H99.1907V31.3216H96.7195V32.1815C96.7195 32.8311 96.7055 33.397 96.6758 33.8801C96.647 34.3624 96.6025 34.7768 96.544 35.1223C96.4855 35.4678 96.4129 35.7515 96.3255 35.9736C96.2381 36.1956 96.1343 36.3699 96.0142 36.4957C95.894 36.6216 95.759 36.7091 95.6069 36.7592C95.4547 36.8092 95.2885 36.8334 95.1075 36.8334H95.0419L95.0404 36.835Z" fill="white"/>
<path d="M103.114 36.6552C102.787 36.5356 102.497 36.3495 102.246 36.0978C101.995 35.8461 101.793 35.524 101.642 35.1324C101.49 34.74 101.414 34.2694 101.414 33.7191V33.5432C101.414 33.0163 101.491 32.5629 101.642 32.1822C101.793 31.8023 101.995 31.4873 102.246 31.2387C102.497 30.9901 102.787 30.8072 103.114 30.6899C103.44 30.5727 103.78 30.514 104.13 30.514C104.481 30.514 104.819 30.5727 105.146 30.6899C105.473 30.8072 105.763 30.9901 106.014 31.2387C106.265 31.4873 106.466 31.8023 106.619 32.1822C106.771 32.5629 106.846 33.0163 106.846 33.5432V33.7191C106.846 34.2694 106.771 34.74 106.619 35.1324C106.466 35.524 106.265 35.8461 106.014 36.0978C105.763 36.3495 105.473 36.5356 105.146 36.6552C104.819 36.7748 104.481 36.835 104.13 36.835C103.78 36.835 103.44 36.7748 103.114 36.6552ZM104.822 35.9657C105.045 35.8774 105.24 35.739 105.41 35.549C105.579 35.3591 105.715 35.1128 105.817 34.8119C105.919 34.5109 105.971 34.1466 105.971 33.7191V33.5432C105.971 33.139 105.919 32.7927 105.817 32.5027C105.715 32.2127 105.579 31.9758 105.41 31.7914C105.24 31.6069 105.045 31.4709 104.822 31.3833C104.601 31.2957 104.37 31.252 104.13 31.252C103.891 31.252 103.66 31.2957 103.438 31.3833C103.216 31.4709 103.021 31.6069 102.851 31.7914C102.681 31.9758 102.546 32.2127 102.444 32.5027C102.342 32.7919 102.29 33.139 102.29 33.5432V33.7191C102.29 34.1459 102.341 34.5109 102.444 34.8119C102.546 35.1136 102.681 35.3591 102.851 35.549C103.021 35.739 103.216 35.8781 103.438 35.9657C103.66 36.0532 103.891 36.097 104.13 36.097C104.37 36.097 104.601 36.0532 104.822 35.9657Z" fill="white"/>
<path d="M108.248 30.6024H112.103V31.3224H109.072V36.7474H108.248V30.6032V30.6024Z" fill="white"/>
<path d="M113.155 30.6024H113.979V35.4303L117.238 30.6024H118.062V36.7467H117.238V31.9188L113.979 36.7467H113.155V30.6024Z" fill="white"/>
<path d="M121.015 34.1662C120.542 34.0373 120.187 33.8192 119.95 33.5119C119.714 33.2047 119.595 32.8491 119.595 32.4449C119.595 32.1815 119.644 31.9376 119.744 31.7124C119.843 31.4873 119.99 31.2927 120.182 31.1285C120.375 30.9643 120.616 30.8361 120.905 30.7423C121.194 30.6485 121.532 30.6024 121.917 30.6024H124.064V36.7467H123.241V34.271H121.821L120.262 36.7467H119.333L121.015 34.1662H121.015ZM120.507 32.9022C120.565 33.0421 120.659 33.161 120.787 33.2579C120.915 33.354 121.081 33.4306 121.282 33.4861C121.483 33.5416 121.725 33.5698 122.005 33.5698H123.241V31.3224H122.005C121.725 31.3224 121.483 31.3505 121.282 31.406C121.081 31.4615 120.915 31.5381 120.787 31.6343C120.659 31.7312 120.565 31.8477 120.507 31.9853C120.448 32.1228 120.419 32.2768 120.419 32.4465C120.419 32.6161 120.448 32.7623 120.507 32.903V32.9022Z" fill="white"/>
</g>
</g>
<defs>
<clipPath id="clip0_101_15">
<rect width="125" height="53" fill="white"/>
</clipPath>
</defs>
</svg>
