<svg width="1602" height="678" viewBox="0 0 1602 678" fill="none" xmlns="http://www.w3.org/2000/svg">
<g clip-path="url(#clip0_81_48)">
<path d="M541.52 147.6V431.98C541.52 485.57 513.83 535.36 468.3 563.64L296.72 670.18C281.03 679.92 261.17 679.92 245.48 670.18L73.9002 563.64C28.3702 535.37 0.680176 485.58 0.680176 431.98V147.6C0.680176 128.39 12.0002 110.99 29.5602 103.21L251.42 4.8199C263.96 -0.740098 278.26 -0.740098 290.79 4.8199L512.65 103.21C530.21 111 541.53 128.4 541.53 147.6H541.52Z" fill="#662482"/>
<path d="M221.56 48.0601L40.6701 128.28C33.0401 131.66 28.1001 139.25 28.1001 147.6V431.98C28.1001 476.4 50.6301 516.9 88.3701 540.33L221.57 623.04V48.0601H221.56Z" fill="#F29100"/>
<path d="M471.62 235.15C461.6 206.49 431.93 166.15 387.38 157.98C344.5 150.12 308.53 175.83 288.39 195.09C278.52 204.53 263.69 204.53 253.82 195.09C233.67 175.83 197.68 150.12 154.8 157.97C110.26 166.14 80.59 206.48 70.56 235.14C45.46 306.81 105.08 414.51 221.55 512.17V409.4C221.55 383.95 242.18 363.32 267.63 363.32H274.54C299.99 363.32 320.62 383.95 320.62 409.4V512.19C437.09 414.53 496.71 306.81 471.61 235.14L471.62 235.15Z" fill="white"/>
<path d="M754.33 182.22H777.79V311.26H754.33V254.09H698.28V311.26H674.82V182.22H698.28V233.8H754.33V182.22Z" fill="#1D1D1B"/>
<path d="M892.88 213.88V311.27H870.53C870.53 304.19 870.56 297.18 870.62 290.23C870.68 283.28 870.74 276.82 870.81 270.86C870.87 264.9 870.93 259.72 871 255.32C871.06 250.92 871.09 247.66 871.09 245.54C867.37 250.38 863.52 255.72 859.54 261.55C855.57 267.39 851.63 273.22 847.72 279.05C843.81 284.89 840.11 290.6 836.64 296.19C833.16 301.78 830.12 306.8 827.51 311.27H807.59V213.88H829.75C829.75 221.08 829.72 227.94 829.66 234.46C829.59 240.98 829.57 246.91 829.57 252.24C829.57 257.57 829.54 262.23 829.48 266.21C829.42 270.18 829.39 273.22 829.39 275.33C832.86 270 836.46 264.5 840.19 258.85C843.91 253.2 847.67 247.68 851.46 242.28C855.24 236.88 859 231.76 862.72 226.92C866.45 222.08 870.04 217.73 873.52 213.88H892.89H892.88Z" fill="#1D1D1B"/>
<path d="M944.08 252.98C946.93 250.13 950.04 246.93 953.39 243.39C956.74 239.85 960.06 236.28 963.35 232.68C966.64 229.08 969.77 225.64 972.75 222.35C975.73 219.06 978.21 216.24 980.2 213.88H1006.64C1003.91 217.11 1000.77 220.65 997.24 224.49C993.7 228.34 990.04 232.28 986.25 236.31C982.46 240.35 978.74 244.26 975.08 248.04C971.42 251.83 968.1 255.21 965.12 258.19C968.97 261.42 972.97 265.18 977.13 269.46C981.29 273.74 985.38 278.28 989.42 283.05C993.45 287.83 997.21 292.67 1000.69 297.57C1004.16 302.48 1007.08 307.04 1009.44 311.26H983.37C981.01 307.54 978.25 303.62 975.08 299.53C971.92 295.43 968.59 291.43 965.12 287.52C961.64 283.61 958.11 279.91 954.51 276.44C950.91 272.97 947.44 269.99 944.08 267.5V311.26H921.55V213.87H944.08V252.97V252.98Z" fill="#1D1D1B"/>
<path d="M1058.23 211.46C1065.68 211.46 1071.94 212.39 1077.04 214.25C1082.13 216.11 1086.19 218.72 1089.24 222.07C1092.28 225.42 1094.45 229.49 1095.76 234.27C1097.06 239.05 1097.72 244.3 1097.72 250V309.03C1094.24 309.77 1089 310.68 1081.98 311.73C1074.97 312.78 1067.05 313.31 1058.24 313.31C1052.4 313.31 1047.07 312.75 1042.23 311.64C1037.39 310.52 1033.26 308.72 1029.84 306.24C1026.42 303.76 1023.76 300.53 1021.83 296.56C1019.91 292.59 1018.94 287.69 1018.94 281.85C1018.94 276.01 1020.02 271.54 1022.2 267.7C1024.37 263.86 1027.32 260.72 1031.04 258.3C1034.77 255.88 1039.08 254.14 1043.98 253.08C1048.89 252.03 1054.01 251.5 1059.34 251.5C1061.82 251.5 1064.43 251.66 1067.16 251.97C1069.89 252.28 1072.81 252.81 1075.91 253.55V249.83C1075.91 247.22 1075.6 244.74 1074.98 242.38C1074.36 240.02 1073.27 237.94 1071.72 236.14C1070.16 234.34 1068.12 232.95 1065.57 231.95C1063.02 230.96 1059.82 230.46 1055.98 230.46C1050.77 230.46 1045.99 230.83 1041.64 231.58C1037.3 232.33 1033.76 233.19 1031.03 234.19L1028.24 215.94C1031.09 214.95 1035.25 213.95 1040.72 212.96C1046.18 211.97 1052.02 211.47 1058.22 211.47L1058.23 211.46ZM1060.09 295.44C1067.04 295.44 1072.32 295.07 1075.92 294.32V269.37C1074.68 269 1072.88 268.62 1070.52 268.25C1068.16 267.88 1065.55 267.69 1062.7 267.69C1060.22 267.69 1057.7 267.88 1055.16 268.25C1052.61 268.62 1050.32 269.3 1048.27 270.3C1046.22 271.29 1044.58 272.69 1043.34 274.49C1042.1 276.29 1041.48 278.55 1041.48 281.29C1041.48 286.63 1043.15 290.32 1046.51 292.37C1049.87 294.42 1054.39 295.44 1060.1 295.44H1060.09Z" fill="#1D1D1B"/>
<path d="M1156.74 291.34H1172.76C1178.35 283.65 1182.66 275.55 1185.7 267.04C1188.74 258.54 1190.98 249.72 1192.4 240.6C1193.52 233.41 1194.24 225.37 1194.68 217.59C1195.81 197.77 1212.08 182.22 1231.94 182.22H1274.43V291.34H1293.61V311.27H1156.74V291.34ZM1234.99 202.33C1225.39 202.33 1217.45 209.77 1216.88 219.36C1216.76 221.31 1216.64 223.26 1216.52 225.23C1216.02 233.05 1215.12 240.78 1213.82 248.41C1212.52 256.05 1210.68 263.49 1208.32 270.75C1205.96 278.01 1202.73 284.88 1198.64 291.33H1251.34V202.32H1234.99V202.33Z" fill="#1D1D1B"/>
<path d="M1305.71 263.04C1305.71 254.48 1306.98 246.97 1309.53 240.51C1312.07 234.05 1315.46 228.68 1319.68 224.4C1323.9 220.12 1328.74 216.89 1334.21 214.72C1339.67 212.55 1345.26 211.46 1350.97 211.46C1364.38 211.46 1374.83 215.62 1382.35 223.94C1389.86 232.26 1393.62 244.67 1393.62 261.18C1393.62 262.42 1393.59 263.82 1393.53 265.37C1393.46 266.92 1393.37 268.32 1393.25 269.56H1329C1329.62 277.38 1332.38 283.43 1337.29 287.71C1342.19 291.99 1349.3 294.14 1358.61 294.14C1364.07 294.14 1369.07 293.65 1373.6 292.65C1378.13 291.65 1381.7 290.6 1384.31 289.49L1387.29 307.92C1386.05 308.55 1384.34 309.2 1382.17 309.88C1380 310.56 1377.52 311.19 1374.72 311.74C1371.93 312.3 1368.92 312.76 1365.69 313.14C1362.46 313.51 1359.17 313.7 1355.82 313.7C1347.25 313.7 1339.8 312.42 1333.47 309.88C1327.14 307.34 1321.92 303.8 1317.83 299.27C1313.73 294.74 1310.69 289.4 1308.7 283.25C1306.71 277.1 1305.72 270.37 1305.72 263.05L1305.71 263.04ZM1371.07 252.98C1371.07 249.88 1370.64 246.93 1369.77 244.14C1368.9 241.35 1367.63 238.92 1365.95 236.88C1364.28 234.83 1362.23 233.22 1359.8 232.04C1357.38 230.86 1354.49 230.27 1351.14 230.27C1347.79 230.27 1344.62 230.92 1342.01 232.22C1339.4 233.52 1337.2 235.23 1335.4 237.34C1333.6 239.45 1332.2 241.87 1331.21 244.6C1330.21 247.33 1329.54 250.13 1329.16 252.98H1371.06H1371.07Z" fill="#1D1D1B"/>
<path d="M1499.18 311.27H1476.65V270.49H1439.97V311.27H1417.44V213.88H1439.97V251.87H1476.65V213.88H1499.18V311.27Z" fill="#1D1D1B"/>
<path d="M1601.23 232.69H1569.76V311.27H1547.23V232.69H1515.95V213.88H1601.24V232.69H1601.23Z" fill="#1D1D1B"/>
<path d="M702.16 468.91C698.16 467.38 694.62 464.98 691.55 461.72C688.48 458.46 686.04 454.33 684.25 449.31C682.46 444.3 681.55 438.31 681.55 431.34V429.09C681.55 422.35 682.45 416.55 684.25 411.68C686.04 406.82 688.48 402.81 691.55 399.66C694.62 396.52 698.16 394.18 702.16 392.64C706.16 391.11 710.34 390.34 714.68 390.34C719.02 390.34 722.86 390.9 726.41 392.03C729.97 393.15 733.1 394.76 735.79 396.86C738.49 398.96 740.67 401.54 742.35 404.61C744.04 407.68 745.1 411.16 745.55 415.05H734.32C733.8 412.51 732.98 410.28 731.85 408.37C730.72 406.46 729.34 404.87 727.7 403.6C726.05 402.33 724.14 401.37 721.97 400.74C719.79 400.11 717.37 399.79 714.67 399.79C711.97 399.79 709.2 400.31 706.58 401.36C703.96 402.41 701.62 404.07 699.57 406.35C697.51 408.64 695.87 411.65 694.63 415.39C693.39 419.13 692.78 423.7 692.78 429.09V431.34C692.78 437.03 693.45 441.8 694.8 445.66C696.15 449.52 697.87 452.64 699.97 455.04C702.06 457.44 704.42 459.16 707.04 460.21C709.66 461.26 712.21 461.78 714.68 461.78C717.6 461.78 720.2 461.41 722.49 460.66C724.77 459.91 726.73 458.86 728.38 457.51C730.03 456.16 731.35 454.55 732.37 452.68C733.38 450.81 734.03 448.75 734.33 446.5H745.56C744.96 450.84 743.77 454.57 741.96 457.67C740.17 460.78 737.9 463.34 735.17 465.36C732.44 467.38 729.33 468.86 725.85 469.79C722.37 470.73 718.64 471.19 714.67 471.19C710.33 471.19 706.15 470.42 702.15 468.89L702.16 468.91Z" fill="#1D1D1B"/>
<path d="M778.46 400.69H751.17V391.48H816.3V400.69H789.01V470.09H778.45V400.69H778.46Z" fill="#1D1D1B"/>
<path d="M844.83 468.91C840.64 467.38 836.93 465 833.71 461.78C830.49 458.56 827.91 454.44 825.97 449.43C824.02 444.41 823.05 438.39 823.05 431.35V429.1C823.05 422.36 824.03 416.56 825.97 411.69C827.91 406.83 830.5 402.8 833.71 399.62C836.93 396.44 840.64 394.1 844.83 392.6C849.02 391.1 853.37 390.35 857.86 390.35C862.35 390.35 866.69 391.1 870.88 392.6C875.07 394.1 878.78 396.44 882 399.62C885.22 402.8 887.8 406.83 889.75 411.69C891.7 416.56 892.67 422.36 892.67 429.1V431.35C892.67 438.39 891.7 444.41 889.75 449.43C887.8 454.44 885.22 458.56 882 461.78C878.78 465 875.07 467.38 870.88 468.91C866.69 470.44 862.35 471.21 857.86 471.21C853.37 471.21 849.02 470.44 844.83 468.91ZM866.73 460.09C869.58 458.96 872.08 457.19 874.26 454.76C876.43 452.33 878.17 449.18 879.48 445.33C880.79 441.48 881.45 436.82 881.45 431.35V429.1C881.45 423.93 880.79 419.5 879.48 415.79C878.17 412.08 876.43 409.05 874.26 406.69C872.08 404.33 869.58 402.59 866.73 401.47C863.89 400.35 860.93 399.79 857.86 399.79C854.79 399.79 851.83 400.35 848.99 401.47C846.14 402.59 843.64 404.33 841.47 406.69C839.29 409.05 837.56 412.08 836.25 415.79C834.94 419.49 834.28 423.93 834.28 429.1V431.35C834.28 436.81 834.93 441.48 836.25 445.33C837.56 449.19 839.29 452.33 841.47 454.76C843.64 457.19 846.14 458.97 848.99 460.09C851.83 461.21 854.79 461.77 857.86 461.77C860.93 461.77 863.89 461.21 866.73 460.09Z" fill="#1D1D1B"/>
<path d="M910.63 391.48H921.64L947.91 441.45L974.19 391.48H984.75V470.08H974.19V410.56L951.62 453.23H943.76L921.19 410.56V470.08H910.63V391.48Z" fill="#1D1D1B"/>
<path d="M1049.99 450.55H1016.75L1009.23 470.09H998.23L1028.33 391.49H1038.88L1068.98 470.09H1057.53L1050.01 450.55H1049.99ZM1020.23 441.34H1046.51L1033.37 404.96L1020.23 441.34Z" fill="#1D1D1B"/>
<path d="M1091.76 400.69H1064.47V391.48H1129.6V400.69H1102.31V470.09H1091.75V400.69H1091.76Z" fill="#1D1D1B"/>
<path d="M1158.13 468.91C1153.94 467.38 1150.23 465 1147.01 461.78C1143.79 458.56 1141.21 454.44 1139.27 449.43C1137.32 444.41 1136.35 438.39 1136.35 431.35V429.1C1136.35 422.36 1137.33 416.56 1139.27 411.69C1141.21 406.83 1143.8 402.8 1147.01 399.62C1150.23 396.44 1153.94 394.1 1158.13 392.6C1162.32 391.1 1166.67 390.35 1171.16 390.35C1175.65 390.35 1179.99 391.1 1184.18 392.6C1188.37 394.1 1192.08 396.44 1195.3 399.62C1198.52 402.8 1201.1 406.83 1203.05 411.69C1205 416.56 1205.97 422.36 1205.97 429.1V431.35C1205.97 438.39 1205 444.41 1203.05 449.43C1201.1 454.44 1198.52 458.56 1195.3 461.78C1192.08 465 1188.37 467.38 1184.18 468.91C1179.99 470.44 1175.65 471.21 1171.16 471.21C1166.67 471.21 1162.32 470.44 1158.13 468.91ZM1180.02 460.09C1182.87 458.96 1185.37 457.19 1187.55 454.76C1189.72 452.33 1191.46 449.18 1192.77 445.33C1194.08 441.48 1194.74 436.82 1194.74 431.35V429.1C1194.74 423.93 1194.08 419.5 1192.77 415.79C1191.46 412.08 1189.72 409.05 1187.55 406.69C1185.37 404.33 1182.87 402.59 1180.02 401.47C1177.18 400.35 1174.22 399.79 1171.15 399.79C1168.08 399.79 1165.12 400.35 1162.28 401.47C1159.43 402.59 1156.93 404.33 1154.76 406.69C1152.58 409.05 1150.85 412.08 1149.54 415.79C1148.23 419.49 1147.57 423.93 1147.57 429.1V431.35C1147.57 436.81 1148.22 441.48 1149.54 445.33C1150.85 449.19 1152.58 452.33 1154.76 454.76C1156.93 457.19 1159.43 458.97 1162.28 460.09C1165.12 461.21 1168.08 461.77 1171.15 461.77C1174.22 461.77 1177.18 461.21 1180.02 460.09Z" fill="#1D1D1B"/>
<path d="M1218.04 471.21C1217.77 471.21 1217.49 471.19 1217.2 471.15C1216.91 471.11 1216.62 471.08 1216.36 471.04C1216.1 471 1215.82 470.94 1215.52 470.87V460.54C1215.74 460.62 1216.31 460.65 1217.2 460.65C1218.7 460.65 1220.03 460.41 1221.19 459.92C1222.35 459.43 1223.36 458.54 1224.22 457.23C1225.08 455.92 1225.82 454.07 1226.47 451.67C1227.1 449.28 1227.61 446.19 1227.99 442.41C1228.37 438.63 1228.62 434.04 1228.78 428.65C1228.93 423.26 1229 416.86 1229 409.45V391.48H1281.78V470.08H1271.23V400.68H1239.56V411.68C1239.56 419.99 1239.38 427.23 1239 433.41C1238.63 439.58 1238.06 444.88 1237.31 449.3C1236.56 453.72 1235.63 457.35 1234.51 460.19C1233.39 463.03 1232.06 465.26 1230.52 466.87C1228.98 468.48 1227.25 469.6 1225.3 470.24C1223.35 470.88 1221.22 471.19 1218.9 471.19H1218.06L1218.04 471.21Z" fill="#1D1D1B"/>
<path d="M1321.51 468.91C1317.32 467.38 1313.61 465 1310.39 461.78C1307.17 458.56 1304.59 454.44 1302.65 449.43C1300.7 444.41 1299.73 438.39 1299.73 431.35V429.1C1299.73 422.36 1300.71 416.56 1302.65 411.69C1304.59 406.83 1307.18 402.8 1310.39 399.62C1313.61 396.44 1317.32 394.1 1321.51 392.6C1325.7 391.1 1330.05 390.35 1334.54 390.35C1339.03 390.35 1343.37 391.1 1347.56 392.6C1351.75 394.1 1355.46 396.44 1358.68 399.62C1361.9 402.8 1364.48 406.83 1366.43 411.69C1368.38 416.56 1369.35 422.36 1369.35 429.1V431.35C1369.35 438.39 1368.38 444.41 1366.43 449.43C1364.48 454.44 1361.9 458.56 1358.68 461.78C1355.46 465 1351.75 467.38 1347.56 468.91C1343.37 470.44 1339.03 471.21 1334.54 471.21C1330.05 471.21 1325.7 470.44 1321.51 468.91ZM1343.41 460.09C1346.26 458.96 1348.76 457.19 1350.94 454.76C1353.11 452.33 1354.85 449.18 1356.16 445.33C1357.47 441.48 1358.13 436.82 1358.13 431.35V429.1C1358.13 423.93 1357.47 419.5 1356.16 415.79C1354.85 412.08 1353.11 409.05 1350.94 406.69C1348.76 404.33 1346.26 402.59 1343.41 401.47C1340.57 400.35 1337.61 399.79 1334.54 399.79C1331.47 399.79 1328.51 400.35 1325.67 401.47C1322.82 402.59 1320.32 404.33 1318.15 406.69C1315.97 409.05 1314.24 412.08 1312.93 415.79C1311.62 419.49 1310.96 423.93 1310.96 429.1V431.35C1310.96 436.81 1311.61 441.48 1312.93 445.33C1314.24 449.19 1315.97 452.33 1318.15 454.76C1320.32 457.19 1322.82 458.97 1325.67 460.09C1328.51 461.21 1331.47 461.77 1334.54 461.77C1337.61 461.77 1340.57 461.21 1343.41 460.09Z" fill="#1D1D1B"/>
<path d="M1387.31 391.48H1436.72V400.69H1397.87V470.09H1387.31V391.49V391.48Z" fill="#1D1D1B"/>
<path d="M1450.2 391.48H1460.76V453.24L1502.53 391.48H1513.08V470.08H1502.53V408.32L1460.76 470.08H1450.2V391.48Z" fill="#1D1D1B"/>
<path d="M1550.92 437.07C1544.86 435.42 1540.31 432.63 1537.28 428.7C1534.25 424.77 1532.73 420.22 1532.73 415.05C1532.73 411.68 1533.36 408.56 1534.64 405.68C1535.91 402.8 1537.79 400.31 1540.25 398.21C1542.72 396.11 1545.81 394.47 1549.52 393.27C1553.22 392.07 1557.55 391.48 1562.49 391.48H1590V470.08H1579.45V438.41H1561.26L1541.27 470.08H1529.37L1550.93 437.07H1550.92ZM1544.41 420.9C1545.16 422.69 1546.36 424.21 1548.01 425.45C1549.65 426.68 1551.77 427.66 1554.35 428.37C1556.93 429.08 1560.02 429.44 1563.62 429.44H1579.45V400.69H1563.62C1560.02 400.69 1556.93 401.05 1554.35 401.76C1551.77 402.47 1549.65 403.45 1548.01 404.68C1546.36 405.92 1545.16 407.41 1544.41 409.17C1543.66 410.93 1543.29 412.9 1543.29 415.07C1543.29 417.24 1543.66 419.11 1544.41 420.91V420.9Z" fill="#1D1D1B"/>
</g>
<defs>
<clipPath id="clip0_81_48">
<rect width="1602" height="678" fill="white"/>
</clipPath>
</defs>
</svg>
